<svg width="16" height="16" viewBox="0 0 16 16" fill="none" xmlns="http://www.w3.org/2000/svg">
    <g clip-path="url(#clip0_360_645)">
        <path fill-rule="evenodd" clip-rule="evenodd"
            d="M7.99999 1.99999C4.68628 1.99999 1.99999 4.68628 1.99999 7.99999C1.99999 11.3137 4.68628 14 7.99999 14C11.3137 14 14 11.3137 14 7.99999C14 4.68628 11.3137 1.99999 7.99999 1.99999ZM0.666656 7.99999C0.666656 3.9499 3.9499 0.666656 7.99999 0.666656C12.0501 0.666656 15.3333 3.9499 15.3333 7.99999C15.3333 12.0501 12.0501 15.3333 7.99999 15.3333C3.9499 15.3333 0.666656 12.0501 0.666656 7.99999ZM8.17207 5.34953C7.86172 5.2963 7.54255 5.35462 7.27108 5.51417C6.99961 5.67371 6.79337 5.92418 6.68888 6.22122C6.5667 6.56854 6.18609 6.75106 5.83876 6.62888C5.49143 6.5067 5.30892 6.12609 5.4311 5.77876C5.64008 5.18469 6.05257 4.68374 6.5955 4.36466C7.13844 4.04557 7.77678 3.92893 8.39748 4.03539C9.01817 4.14186 9.58116 4.46456 9.98672 4.94634C10.3922 5.42802 10.6142 6.03764 10.6133 6.66726C10.613 7.6875 9.85662 8.36125 9.31646 8.72136C9.02603 8.91497 8.74036 9.05733 8.52991 9.15086C8.42375 9.19805 8.33434 9.23386 8.26992 9.2584C8.23766 9.27069 8.2115 9.28022 8.19246 9.28699L8.1693 9.2951L8.16193 9.29761L8.15933 9.29849L8.15831 9.29883C8.15811 9.2989 8.15747 9.29911 7.94666 8.66666L8.15747 9.29911C7.80818 9.41554 7.43063 9.22677 7.3142 8.87747C7.19781 8.5283 7.38642 8.15088 7.73549 8.03432L7.74578 8.0307C7.75603 8.02705 7.77284 8.02096 7.79526 8.01241C7.84022 7.99529 7.90707 7.9686 7.9884 7.93245C8.15295 7.85931 8.36728 7.75167 8.57686 7.61196C9.03659 7.30547 9.27999 6.97941 9.27999 6.66666L9.27999 6.66566C9.28046 6.35078 9.16947 6.0459 8.96669 5.80501C8.76391 5.56412 8.48242 5.40277 8.17207 5.34953ZM7.33332 11.3333C7.33332 10.9651 7.6318 10.6667 7.99999 10.6667H8.00666C8.37485 10.6667 8.67332 10.9651 8.67332 11.3333C8.67332 11.7015 8.37485 12 8.00666 12H7.99999C7.6318 12 7.33332 11.7015 7.33332 11.3333Z"
            fill="white" />
    </g>
    <defs>
        <clipPath id="clip0_360_645">
            <rect width="16" height="16" fill="white" />
        </clipPath>
    </defs>
</svg>
    