<svg width="16" height="16" viewBox="0 0 16 16" fill="none" xmlns="http://www.w3.org/2000/svg">
    <path
        d="M7.10459 3.17134C8.6667 1.60934 11.1998 1.60928 12.7618 3.17134C14.3238 4.73341 14.3238 7.26648 12.7618 8.82857C11.3602 10.2302 9.17751 10.373 7.61534 9.25923L6.63194 10.2417L6.63291 10.2426L7.57627 11.185C7.83661 11.4454 7.83658 11.868 7.57627 12.1284C7.31592 12.3887 6.89326 12.3887 6.63291 12.1284L5.69053 11.185L5.68956 11.184L5.21788 11.6557L6.16221 12.6001C6.42209 12.8604 6.42226 13.2822 6.16221 13.5424C5.90186 13.8028 5.4792 13.8028 5.21885 13.5424L4.27549 12.5991L3.80479 13.0708C3.54448 13.3311 3.12277 13.331 2.86241 13.0708C2.60206 12.8104 2.60206 12.3887 2.86241 12.1284L6.67198 8.31685C5.55936 6.75477 5.70337 4.57257 7.10459 3.17134ZM11.8185 4.1147C10.7771 3.0733 9.08838 3.0733 8.04698 4.1147C7.00612 5.15599 7.00614 6.84391 8.04698 7.88521C9.08838 8.92661 10.7771 8.92661 11.8185 7.88521C12.8597 6.84382 12.8598 5.15607 11.8185 4.1147Z"
        fill="white" />
</svg>
    