<svg width="16" height="16" viewBox="0 0 16 16" fill="none" xmlns="http://www.w3.org/2000/svg">
    <path
        d="M13.1334 8.5333C13.0667 8.39997 13 8.19997 13 7.99997C13 7.79997 13.0667 7.66664 13.1334 7.46664L13.6667 6.7333C13.8667 6.39997 14 6.06663 14.0667 5.66663C14.0667 5.3333 14 4.99997 13.8 4.66663C13.6 4.3333 13.3334 4.06664 13 3.9333C12.6667 3.7333 12.2667 3.66664 11.9334 3.7333L11.0667 3.79997C10.8667 3.79997 10.7334 3.79997 10.5334 3.66664C10.4 3.59997 10.2667 3.46664 10.2 3.26664L9.86669 2.46664C9.73336 2.1333 9.46669 1.79997 9.13336 1.59997C8.53336 1.19997 7.66669 1.19997 7.00002 1.59997C6.60002 1.86664 6.40002 2.1333 6.20002 2.46664L5.86669 3.26664C5.80002 3.46664 5.66669 3.59997 5.53336 3.66664C5.33336 3.79997 5.20002 3.79997 5.00002 3.79997L4.13336 3.7333C3.73336 3.66664 3.33336 3.7333 3.00002 3.9333C2.66669 4.06664 2.40002 4.3333 2.20002 4.66663C2.00002 4.99997 1.93336 5.3333 1.93336 5.7333C1.93336 6.1333 2.06669 6.46664 2.33336 6.79997L2.86669 7.5333C3.00002 7.66664 3.00002 7.86664 3.00002 8.06664C3.00002 8.26664 2.93336 8.39997 2.86669 8.59997L2.33336 9.3333C2.13336 9.66664 2.00002 9.99997 1.93336 10.4C1.86669 10.8 2.00002 11 2.20002 11.3333C2.40002 11.6666 2.66669 11.9333 3.00002 12.0666C3.33336 12.2 3.73336 12.3333 4.06669 12.2666L4.93336 12.2C5.13336 12.2 5.26669 12.2 5.46669 12.3333C5.60002 12.4 5.73336 12.6 5.80002 12.7333L6.13336 13.5333C6.26669 13.8666 6.53336 14.2 6.86669 14.4C7.20002 14.6 7.53336 14.7333 7.93336 14.7333C8.33336 14.7333 8.66669 14.6 9.00002 14.4C9.33336 14.2 9.53336 13.8666 9.73336 13.5333L10.0667 12.7333C10.1334 12.6 10.2667 12.4 10.4 12.3333C10.5334 12.2666 10.7334 12.2 10.9334 12.2L11.8 12.2666C12.2 12.3333 12.5334 12.2666 12.8667 12.0666C13.2 11.8666 13.4667 11.6666 13.6667 11.3333C13.8667 11 13.9334 10.6 13.9334 10.2666C13.9334 9.86663 13.8 9.5333 13.5334 9.19997L13.1334 8.5333ZM12.2 9.19997L12.7334 9.9333C12.8 10.0666 12.8667 10.2 12.8667 10.3333C12.8667 10.4666 12.8667 10.6 12.8 10.7333C12.7334 10.8666 12.6 10.9333 12.4667 11C12.3334 11.0666 12.2 11.0666 12.0667 11.0666L11.2 11C10.8 10.9333 10.3334 11.0666 9.93336 11.2666C9.53336 11.4666 9.26669 11.8 9.06669 12.2L8.66669 13C8.60002 13.1333 8.53336 13.2666 8.40002 13.3333C8.13336 13.4666 7.86669 13.4666 7.60002 13.3333C7.46669 13.2666 7.40002 13.1333 7.33336 13L7.00002 12.2C6.80002 11.8 6.53336 11.4666 6.13336 11.2666C5.73336 11.0666 5.33336 10.9333 4.86669 11L4.00002 11.0666C3.86669 11.0666 3.73336 11.0666 3.60002 11C3.46669 10.9333 3.40002 10.8666 3.26669 10.7333C3.20002 10.6 3.13336 10.4666 3.20002 10.3333C3.20002 10.2 3.26669 10.0666 3.33336 9.9333L3.86669 9.19997C4.13336 8.86664 4.26669 8.39997 4.26669 7.99997C4.26669 7.5333 4.13336 7.1333 3.86669 6.79997L3.33336 6.06664C3.20002 5.9333 3.20002 5.79997 3.20002 5.66663C3.20002 5.5333 3.20002 5.39997 3.26669 5.26664C3.33336 5.1333 3.46669 5.06663 3.60002 4.99997C3.66669 4.9333 3.86669 4.86664 4.00002 4.86664L4.86669 4.9333C5.33336 5.06664 5.73336 4.9333 6.13336 4.7333C6.53336 4.5333 6.80002 4.19997 7.00002 3.79997L7.33336 2.99997C7.40002 2.86664 7.46669 2.7333 7.60002 2.66664C7.86669 2.5333 8.13336 2.5333 8.40002 2.66664C8.53336 2.7333 8.60002 2.86664 8.66669 2.99997L9.00002 3.79997C9.20002 4.19997 9.46669 4.5333 9.86669 4.7333C10.2667 4.9333 10.6667 5.06663 11.1334 4.99997L12 4.86664C12.1334 4.86664 12.2667 4.86664 12.4 4.9333C12.5334 4.99997 12.6 5.06664 12.6667 5.19997C12.7334 5.3333 12.8 5.46663 12.8 5.59997C12.8 5.7333 12.7334 5.86663 12.6667 5.99997L12.1334 6.7333C11.8667 7.06664 11.7334 7.5333 11.7334 7.9333C11.8 8.39997 11.9334 8.86664 12.2 9.19997Z"
        fill="white" />
    <path
        d="M7.99998 5.59997C6.66664 5.59997 5.59998 6.66663 5.59998 7.99997C5.59998 9.3333 6.66664 10.4 7.99998 10.4C9.33331 10.4 10.4 9.3333 10.4 7.99997C10.4 6.66663 9.33331 5.59997 7.99998 5.59997ZM7.99998 9.19997C7.33331 9.19997 6.79998 8.66663 6.79998 7.99997C6.79998 7.3333 7.33331 6.79997 7.99998 6.79997C8.66664 6.79997 9.19998 7.3333 9.19998 7.99997C9.19998 8.66663 8.66664 9.19997 7.99998 9.19997Z"
        fill="white" />
</svg>
    